<?xml version="1.0" encoding="UTF-8"?>
<svg xmlns="http://www.w3.org/2000/svg" width="244.558" height="45.081" viewBox="0 0 244.558 45.081">
  <g id="Group_2163" data-name="Group 2163" transform="translate(-102.451 -21.959)">
    <path id="Path_1102" data-name="Path 1102" d="M49.055,19.959,38.733,2.081A4.162,4.162,0,0,0,35.128,0H14.484a4.161,4.161,0,0,0-3.6,2.081L.558,19.959a4.161,4.161,0,0,0,0,4.162L10.88,42a4.161,4.161,0,0,0,3.6,2.081H35.128A4.162,4.162,0,0,0,38.733,42L49.055,24.122a4.161,4.161,0,0,0,0-4.162" transform="translate(103 22.459)" fill="#752388" stroke="#fff" stroke-width="1"></path>
    <path id="Path_1103" data-name="Path 1103" d="M42.043,22.239A7.7,7.7,0,0,0,34.5,15.413H19.762a1.487,1.487,0,1,0,0,2.973H34.531a4.526,4.526,0,0,1,4.544,4.056,4.462,4.462,0,0,1-4.443,4.867H30.915l7.435,10.409h3.717l-5.493-7.692a7.438,7.438,0,0,0,5.469-7.786" transform="translate(97.635 17.935)" fill="#fff"></path>
    <path id="Path_1104" data-name="Path 1104" d="M34.632,23.832H19.762a1.487,1.487,0,1,0,0,2.974H25.71V40.189h2.974V26.806h5.948a1.487,1.487,0,0,0,0-2.974" transform="translate(97.635 15.463)" fill="#fff"></path>
    <path id="Path_1105" data-name="Path 1105" d="M87.768,19.447h15.869v2.918H87.768ZM94.1,20h3.2V38.9H94.1Z" transform="translate(77.235 16.751)" fill="#fff"></path>
    <path id="Path_1106" data-name="Path 1106" d="M114.536,41.6a7.188,7.188,0,0,1-3.6-.9,6.717,6.717,0,0,1-2.529-2.488,6.989,6.989,0,0,1,2.473-9.588,6.793,6.793,0,0,1,3.488-.917,6.264,6.264,0,0,1,3.293.862,6.141,6.141,0,0,1,2.251,2.362,7.017,7.017,0,0,1,.819,3.418,5.617,5.617,0,0,1-.042.681q-.041.348-.125.764h-10.95v-2.5h9.366l-1.139,1a5.125,5.125,0,0,0-.472-2.056,2.985,2.985,0,0,0-1.181-1.278,3.684,3.684,0,0,0-1.876-.444,3.962,3.962,0,0,0-2.029.5,3.411,3.411,0,0,0-1.334,1.4,5.1,5.1,0,0,0,.028,4.349,3.526,3.526,0,0,0,1.418,1.46,4.236,4.236,0,0,0,2.112.514,4.953,4.953,0,0,0,1.9-.361,3.961,3.961,0,0,0,1.487-1.057l1.946,1.973a6.244,6.244,0,0,1-2.362,1.724,7.533,7.533,0,0,1-2.946.584" transform="translate(71.45 14.326)" fill="#fff"></path>
    <path id="Path_1107" data-name="Path 1107" d="M135.487,41.6a7.041,7.041,0,0,1-3.571-.918,6.713,6.713,0,0,1-2.515-2.5,7.278,7.278,0,0,1,0-7.073,6.755,6.755,0,0,1,2.515-2.487,7.387,7.387,0,0,1,6.475-.319,6.346,6.346,0,0,1,2.292,1.709l-2,2.029a3.693,3.693,0,0,0-1.4-1.042,4.542,4.542,0,0,0-1.792-.348,3.91,3.91,0,0,0-2.015.514,3.6,3.6,0,0,0-1.361,1.4,4.676,4.676,0,0,0,0,4.155,3.578,3.578,0,0,0,1.361,1.417,3.9,3.9,0,0,0,2.015.514,4.542,4.542,0,0,0,1.792-.348,3.679,3.679,0,0,0,1.4-1.042l2,2.028a6.324,6.324,0,0,1-2.292,1.71,7.083,7.083,0,0,1-2.9.6" transform="translate(65.283 14.326)" fill="#fff"></path>
    <path id="Path_1108" data-name="Path 1108" d="M148.861,18.661h3.057V38.67h-3.057ZM158,38.67v-7.7a3,3,0,0,0-.848-2.2,2.93,2.93,0,0,0-2.182-.862,3.184,3.184,0,0,0-1.584.389,2.766,2.766,0,0,0-1.084,1.084,3.178,3.178,0,0,0-.389,1.585l-1.2-.667a5.421,5.421,0,0,1,.668-2.71,4.887,4.887,0,0,1,1.848-1.861,5.211,5.211,0,0,1,2.654-.681,5.275,5.275,0,0,1,2.668.667,4.809,4.809,0,0,1,1.835,1.848,5.466,5.466,0,0,1,.667,2.737V38.67Z" transform="translate(59.301 16.981)" fill="#fff"></path>
    <path id="Path_1109" data-name="Path 1109" d="M179,19.447h3.2V38.9H179Zm2.195,11.2v-2.64h4.919a3.232,3.232,0,0,0,2.293-.764,2.768,2.768,0,0,0,.82-2.126,2.848,2.848,0,0,0-.806-2.056,3.022,3.022,0,0,0-2.278-.834h-4.947V19.447h5.086a6.8,6.8,0,0,1,3.224.737,5.328,5.328,0,0,1,2.918,4.877,5.546,5.546,0,0,1-.764,2.946,5.175,5.175,0,0,1-2.154,1.946,7.129,7.129,0,0,1-3.224.694Zm8.477,8.254-6.809-8.448,2.973-1.084L193.7,38.9Z" transform="translate(50.455 16.751)" fill="#fff"></path>
    <path id="Path_1110" data-name="Path 1110" d="M207.849,41.6a7.187,7.187,0,0,1-3.6-.9,6.717,6.717,0,0,1-2.529-2.488,6.989,6.989,0,0,1,2.473-9.588,6.793,6.793,0,0,1,3.488-.917,6.264,6.264,0,0,1,3.293.862,6.141,6.141,0,0,1,2.251,2.362,7.017,7.017,0,0,1,.819,3.418,5.617,5.617,0,0,1-.042.681q-.041.348-.125.764h-10.95v-2.5H212.3l-1.139,1a5.125,5.125,0,0,0-.472-2.056,2.985,2.985,0,0,0-1.181-1.278,3.684,3.684,0,0,0-1.876-.444,3.962,3.962,0,0,0-2.029.5,3.411,3.411,0,0,0-1.334,1.4,5.1,5.1,0,0,0,.028,4.349,3.525,3.525,0,0,0,1.418,1.46,4.236,4.236,0,0,0,2.112.514,4.953,4.953,0,0,0,1.9-.361,3.961,3.961,0,0,0,1.487-1.057l1.946,1.973a6.244,6.244,0,0,1-2.362,1.724,7.533,7.533,0,0,1-2.946.584" transform="translate(44.058 14.326)" fill="#fff"></path>
    <path id="Path_1111" data-name="Path 1111" d="M220.891,25.793h9.449v2.779h-9.449Zm3.2-5.559h3.057v18.9h-3.057Z" transform="translate(38.157 16.52)" fill="#fff"></path>
    <path id="Path_1112" data-name="Path 1112" d="M242.749,41.72a5.994,5.994,0,0,1-3.015-.75,5.334,5.334,0,0,1-2.056-2.071,6.148,6.148,0,0,1-.737-3.043V28.1H240v7.615a3.863,3.863,0,0,0,.32,1.653,2.292,2.292,0,0,0,.945,1.042,2.918,2.918,0,0,0,1.486.362,2.6,2.6,0,0,0,2.043-.792,3.282,3.282,0,0,0,.709-2.265V28.1h3.057v7.753a6.2,6.2,0,0,1-.738,3.071,5.251,5.251,0,0,1-2.043,2.056,6.06,6.06,0,0,1-3.029.737" transform="translate(33.445 14.21)" fill="#fff"></path>
    <path id="Path_1113" data-name="Path 1113" d="M257.753,27.987h3.057v13.34h-3.057Zm3.057,5.919-1.056-.528a6.887,6.887,0,0,1,1.125-4.1,3.914,3.914,0,0,1,3.4-1.57,4.072,4.072,0,0,1,3.308,1.529l-2,2.056a2.108,2.108,0,0,0-.805-.556,3.192,3.192,0,0,0-3.141.639,3.385,3.385,0,0,0-.833,2.529" transform="translate(27.336 14.326)" fill="#fff"></path>
    <path id="Path_1114" data-name="Path 1114" d="M273.764,27.987h3.057v13.34h-3.057Zm9.143,13.34v-7.7a3,3,0,0,0-.848-2.2,2.93,2.93,0,0,0-2.181-.862,3.184,3.184,0,0,0-1.584.389,2.765,2.765,0,0,0-1.084,1.084,3.17,3.17,0,0,0-.389,1.585l-1.2-.667a5.421,5.421,0,0,1,.668-2.71,4.887,4.887,0,0,1,1.848-1.861,5.212,5.212,0,0,1,2.654-.681,4.755,4.755,0,0,1,2.668.764,5.5,5.5,0,0,1,1.835,1.973,5.133,5.133,0,0,1,.667,2.515v8.365Z" transform="translate(22.636 14.326)" fill="#fff"></path>
    <path id="Path_1115" data-name="Path 1115" d="M301.279,41.6a7.188,7.188,0,0,1-3.6-.9,6.717,6.717,0,0,1-2.529-2.488,6.989,6.989,0,0,1,2.473-9.588,6.793,6.793,0,0,1,3.488-.917,6.264,6.264,0,0,1,3.293.862,6.141,6.141,0,0,1,2.251,2.362,7.017,7.017,0,0,1,.819,3.418,5.617,5.617,0,0,1-.042.681q-.041.348-.125.764h-10.95v-2.5h9.366l-1.14,1a5.124,5.124,0,0,0-.472-2.056,2.986,2.986,0,0,0-1.181-1.278,3.684,3.684,0,0,0-1.876-.444,3.962,3.962,0,0,0-2.029.5,3.411,3.411,0,0,0-1.334,1.4,5.1,5.1,0,0,0,.028,4.349,3.524,3.524,0,0,0,1.418,1.46,4.236,4.236,0,0,0,2.112.514,4.953,4.953,0,0,0,1.9-.361,3.961,3.961,0,0,0,1.487-1.057l1.946,1.973a6.244,6.244,0,0,1-2.362,1.724,7.532,7.532,0,0,1-2.946.584" transform="translate(16.631 14.326)" fill="#fff"></path>
    <path id="Path_1116" data-name="Path 1116" d="M316.446,27.987H319.5v13.34h-3.057Zm3.057,5.919-1.056-.528a6.882,6.882,0,0,1,1.125-4.1,3.913,3.913,0,0,1,3.4-1.57,4.072,4.072,0,0,1,3.308,1.529l-2,2.056a2.11,2.11,0,0,0-.806-.556,3.191,3.191,0,0,0-3.14.639,3.382,3.382,0,0,0-.834,2.529" transform="translate(10.106 14.326)" fill="#fff"></path>
    <path id="Path_1117" data-name="Path 1117" d="M335.942,41.6a7.8,7.8,0,0,1-2.14-.292,7.2,7.2,0,0,1-1.89-.834,6.169,6.169,0,0,1-1.5-1.32l1.945-1.946a4.536,4.536,0,0,0,1.6,1.209,4.952,4.952,0,0,0,2.042.4,3.16,3.16,0,0,0,1.556-.305.972.972,0,0,0,.529-.889,1.071,1.071,0,0,0-.5-.945,4.812,4.812,0,0,0-1.293-.57q-.792-.235-1.667-.486a8.174,8.174,0,0,1-1.667-.681,3.6,3.6,0,0,1-1.293-1.181,3.45,3.45,0,0,1-.5-1.946,3.934,3.934,0,0,1,.6-2.2,3.887,3.887,0,0,1,1.7-1.417,6.3,6.3,0,0,1,2.626-.5,6.747,6.747,0,0,1,2.849.57A5.26,5.26,0,0,1,341,29.988l-1.945,1.946a3.889,3.889,0,0,0-1.335-1.084A3.937,3.937,0,0,0,336,30.488a2.966,2.966,0,0,0-1.417.278.88.88,0,0,0-.5.806.96.96,0,0,0,.5.862,5.174,5.174,0,0,0,1.292.528q.793.223,1.668.486a7.831,7.831,0,0,1,1.668.723,3.787,3.787,0,0,1,1.292,1.222,3.573,3.573,0,0,1,.5,1.988,3.814,3.814,0,0,1-1.362,3.084,5.582,5.582,0,0,1-3.7,1.14" transform="translate(6.007 14.326)" fill="#fff"></path>
    <path id="Path_1121" data-name="Path 1121" d="M87.768,19.447h15.869v2.918H87.768ZM94.1,20h3.2V38.9H94.1Z" transform="translate(77.235 16.751)" fill="#fff"></path>
    <path id="Path_1122" data-name="Path 1122" d="M114.536,41.6a7.188,7.188,0,0,1-3.6-.9,6.717,6.717,0,0,1-2.529-2.488,6.989,6.989,0,0,1,2.473-9.588,6.793,6.793,0,0,1,3.488-.917,6.264,6.264,0,0,1,3.293.862,6.141,6.141,0,0,1,2.251,2.362,7.017,7.017,0,0,1,.819,3.418,5.617,5.617,0,0,1-.042.681q-.041.348-.125.764h-10.95v-2.5h9.366l-1.139,1a5.125,5.125,0,0,0-.472-2.056,2.985,2.985,0,0,0-1.181-1.278,3.684,3.684,0,0,0-1.876-.444,3.962,3.962,0,0,0-2.029.5,3.411,3.411,0,0,0-1.334,1.4,5.1,5.1,0,0,0,.028,4.349,3.526,3.526,0,0,0,1.418,1.46,4.236,4.236,0,0,0,2.112.514,4.953,4.953,0,0,0,1.9-.361,3.961,3.961,0,0,0,1.487-1.057l1.946,1.973a6.244,6.244,0,0,1-2.362,1.724,7.533,7.533,0,0,1-2.946.584" transform="translate(71.45 14.326)" fill="#fff"></path>
    <path id="Path_1123" data-name="Path 1123" d="M135.488,41.6a7.041,7.041,0,0,1-3.571-.918,6.713,6.713,0,0,1-2.515-2.5,7.278,7.278,0,0,1,0-7.073,6.756,6.756,0,0,1,2.515-2.487,7.387,7.387,0,0,1,6.475-.319,6.346,6.346,0,0,1,2.292,1.709l-2,2.029A3.693,3.693,0,0,0,137.28,31a4.542,4.542,0,0,0-1.792-.348,3.91,3.91,0,0,0-2.015.514,3.6,3.6,0,0,0-1.361,1.4,4.676,4.676,0,0,0,0,4.155,3.578,3.578,0,0,0,1.361,1.417,3.9,3.9,0,0,0,2.015.514,4.542,4.542,0,0,0,1.792-.348,3.679,3.679,0,0,0,1.4-1.042l2,2.028a6.324,6.324,0,0,1-2.292,1.71,7.083,7.083,0,0,1-2.9.6" transform="translate(65.283 14.326)" fill="#fff"></path>
    <path id="Path_1124" data-name="Path 1124" d="M148.862,18.661h3.057V38.67h-3.057Zm9.144,20.009v-7.7a3,3,0,0,0-.848-2.2,2.93,2.93,0,0,0-2.182-.862,3.184,3.184,0,0,0-1.584.389,2.766,2.766,0,0,0-1.084,1.084,3.177,3.177,0,0,0-.389,1.585l-1.2-.667a5.421,5.421,0,0,1,.668-2.71,4.887,4.887,0,0,1,1.848-1.861,5.211,5.211,0,0,1,2.654-.681,5.275,5.275,0,0,1,2.668.667,4.809,4.809,0,0,1,1.835,1.848,5.466,5.466,0,0,1,.667,2.737V38.67Z" transform="translate(59.301 16.981)" fill="#fff"></path>
    <path id="Path_1125" data-name="Path 1125" d="M179,19.447h3.2V38.9H179Zm2.195,11.2v-2.64h4.919a3.232,3.232,0,0,0,2.293-.764,2.768,2.768,0,0,0,.819-2.126,2.848,2.848,0,0,0-.806-2.056,3.022,3.022,0,0,0-2.278-.834h-4.947V19.447h5.086a6.8,6.8,0,0,1,3.224.737,5.328,5.328,0,0,1,2.918,4.877,5.547,5.547,0,0,1-.764,2.946,5.175,5.175,0,0,1-2.154,1.946,7.129,7.129,0,0,1-3.224.694Zm8.477,8.254-6.809-8.448,2.973-1.084L193.7,38.9Z" transform="translate(50.455 16.751)" fill="#fff"></path>
    <path id="Path_1126" data-name="Path 1126" d="M207.85,41.6a7.188,7.188,0,0,1-3.6-.9,6.717,6.717,0,0,1-2.529-2.488,6.989,6.989,0,0,1,2.473-9.588,6.793,6.793,0,0,1,3.488-.917,6.264,6.264,0,0,1,3.293.862,6.141,6.141,0,0,1,2.251,2.362,7.017,7.017,0,0,1,.819,3.418,5.617,5.617,0,0,1-.042.681q-.041.348-.125.764H202.93v-2.5H212.3l-1.139,1a5.125,5.125,0,0,0-.472-2.056,2.985,2.985,0,0,0-1.181-1.278,3.684,3.684,0,0,0-1.876-.444,3.962,3.962,0,0,0-2.029.5,3.411,3.411,0,0,0-1.334,1.4,5.105,5.105,0,0,0,.028,4.349,3.526,3.526,0,0,0,1.418,1.46,4.236,4.236,0,0,0,2.112.514,4.953,4.953,0,0,0,1.9-.361,3.962,3.962,0,0,0,1.487-1.057l1.946,1.973a6.244,6.244,0,0,1-2.362,1.724,7.533,7.533,0,0,1-2.946.584" transform="translate(44.057 14.326)" fill="#fff"></path>
    <path id="Path_1127" data-name="Path 1127" d="M220.892,25.793h9.449v2.779h-9.449Zm3.2-5.559h3.057v18.9h-3.057Z" transform="translate(38.157 16.52)" fill="#fff"></path>
    <path id="Path_1128" data-name="Path 1128" d="M242.751,41.72a6,6,0,0,1-3.016-.75,5.334,5.334,0,0,1-2.056-2.071,6.148,6.148,0,0,1-.736-3.043V28.1H240v7.615a3.863,3.863,0,0,0,.32,1.653,2.287,2.287,0,0,0,.945,1.042,2.918,2.918,0,0,0,1.486.362,2.6,2.6,0,0,0,2.043-.792,3.286,3.286,0,0,0,.709-2.265V28.1h3.057v7.753a6.2,6.2,0,0,1-.738,3.071,5.246,5.246,0,0,1-2.043,2.056,6.057,6.057,0,0,1-3.029.737" transform="translate(33.445 14.21)" fill="#fff"></path>
    <path id="Path_1129" data-name="Path 1129" d="M257.754,27.987h3.057v13.34h-3.057Zm3.057,5.919-1.056-.528a6.882,6.882,0,0,1,1.125-4.1,3.913,3.913,0,0,1,3.4-1.57,4.072,4.072,0,0,1,3.308,1.529l-2,2.056a2.111,2.111,0,0,0-.806-.556,3.191,3.191,0,0,0-3.14.639,3.382,3.382,0,0,0-.834,2.529" transform="translate(27.335 14.326)" fill="#fff"></path>
    <path id="Path_1130" data-name="Path 1130" d="M273.764,27.987h3.057v13.34h-3.057Zm9.143,13.34v-7.7a3,3,0,0,0-.848-2.2,2.93,2.93,0,0,0-2.181-.862,3.184,3.184,0,0,0-1.584.389,2.765,2.765,0,0,0-1.084,1.084,3.177,3.177,0,0,0-.389,1.585l-1.2-.667a5.42,5.42,0,0,1,.668-2.71,4.887,4.887,0,0,1,1.848-1.861,5.212,5.212,0,0,1,2.654-.681,4.755,4.755,0,0,1,2.668.764,5.5,5.5,0,0,1,1.835,1.973,5.133,5.133,0,0,1,.667,2.515v8.365Z" transform="translate(22.636 14.326)" fill="#fff"></path>
    <path id="Path_1131" data-name="Path 1131" d="M301.28,41.6a7.188,7.188,0,0,1-3.6-.9,6.717,6.717,0,0,1-2.529-2.488,6.989,6.989,0,0,1,2.473-9.588,6.793,6.793,0,0,1,3.488-.917,6.264,6.264,0,0,1,3.293.862,6.141,6.141,0,0,1,2.251,2.362,7.018,7.018,0,0,1,.819,3.418,5.617,5.617,0,0,1-.042.681q-.041.348-.125.764H296.36v-2.5h9.366l-1.139,1a5.125,5.125,0,0,0-.472-2.056,2.985,2.985,0,0,0-1.181-1.278,3.684,3.684,0,0,0-1.876-.444,3.962,3.962,0,0,0-2.029.5,3.411,3.411,0,0,0-1.334,1.4,5.1,5.1,0,0,0,.028,4.349,3.525,3.525,0,0,0,1.418,1.46,4.236,4.236,0,0,0,2.112.514,4.953,4.953,0,0,0,1.9-.361,3.962,3.962,0,0,0,1.487-1.057l1.945,1.973a6.243,6.243,0,0,1-2.362,1.724,7.532,7.532,0,0,1-2.946.584" transform="translate(16.631 14.326)" fill="#fff"></path>
    <path id="Path_1132" data-name="Path 1132" d="M316.448,27.987h3.057v13.34h-3.057Zm3.057,5.919-1.056-.528a6.882,6.882,0,0,1,1.125-4.1,3.913,3.913,0,0,1,3.4-1.57,4.072,4.072,0,0,1,3.308,1.529l-2,2.056a2.11,2.11,0,0,0-.806-.556,3.191,3.191,0,0,0-3.14.639,3.382,3.382,0,0,0-.834,2.529" transform="translate(10.106 14.326)" fill="#fff"></path>
    <path id="Path_1133" data-name="Path 1133" d="M335.944,41.6a7.8,7.8,0,0,1-2.14-.292,7.2,7.2,0,0,1-1.89-.834,6.169,6.169,0,0,1-1.5-1.32l1.946-1.946a4.536,4.536,0,0,0,1.6,1.209,4.953,4.953,0,0,0,2.042.4,3.16,3.16,0,0,0,1.556-.305.972.972,0,0,0,.528-.889,1.071,1.071,0,0,0-.5-.945,4.813,4.813,0,0,0-1.293-.57q-.792-.235-1.667-.486a8.172,8.172,0,0,1-1.667-.681,3.6,3.6,0,0,1-1.293-1.181,3.451,3.451,0,0,1-.5-1.946,3.934,3.934,0,0,1,.6-2.2,3.886,3.886,0,0,1,1.7-1.417,6.3,6.3,0,0,1,2.626-.5,6.748,6.748,0,0,1,2.849.57A5.261,5.261,0,0,1,341,29.988l-1.946,1.946a3.887,3.887,0,0,0-1.334-1.084A3.937,3.937,0,0,0,336,30.488a2.967,2.967,0,0,0-1.417.278.88.88,0,0,0-.5.806.96.96,0,0,0,.5.862,5.176,5.176,0,0,0,1.292.528q.793.223,1.668.486a7.828,7.828,0,0,1,1.668.723,3.788,3.788,0,0,1,1.292,1.222,3.573,3.573,0,0,1,.5,1.988,3.814,3.814,0,0,1-1.362,3.084,5.582,5.582,0,0,1-3.7,1.14" transform="translate(6.006 14.326)" fill="#fff"></path>
  </g>
</svg>
